<mxfile host="65bd71144e">
    <diagram name="PÃ¡gina-1" id="pwffkeNjvcXLnG-cJtHJ">
        <mxGraphModel dx="6385" dy="2895" grid="1" gridSize="10" guides="1" tooltips="1" connect="1" arrows="1" fold="1" page="1" pageScale="1" pageWidth="1920" pageHeight="1200" background="light-dark(#f2f2f2, #313131)" math="0" shadow="1">
            <root>
                <mxCell id="0"/>
                <mxCell id="1" parent="0"/>
                <mxCell id="7yvUDdmi210qswCJpNzK-16" value="&lt;span style=&quot;color: rgb(0, 85, 170); font-family: monospace; text-align: left; background-color: rgb(229, 229, 229);&quot;&gt;&lt;font&gt;course&lt;/font&gt;&lt;/span&gt;" style="swimlane;childLayout=stackLayout;horizontal=1;startSize=50;horizontalStack=0;rounded=1;fontSize=22;fontStyle=0;strokeWidth=2;resizeParent=0;resizeLast=1;shadow=0;dashed=0;align=center;arcSize=4;whiteSpace=wrap;html=1;" parent="1" vertex="1">
                    <mxGeometry x="50" y="700" width="260" height="420" as="geometry"/>
                </mxCell>
                <mxCell id="7yvUDdmi210qswCJpNzK-17" value="id&lt;div&gt;&lt;div&gt;category&lt;/div&gt;&lt;div&gt;&lt;span style=&quot;background-color: initial;&quot;&gt;sortorder&lt;/span&gt;&lt;/div&gt;&lt;div&gt;fullname&lt;/div&gt;&lt;div&gt;shortname&lt;/div&gt;&lt;div&gt;idnumber&lt;/div&gt;&lt;div&gt;summaryformat&lt;/div&gt;&lt;div&gt;format&lt;/div&gt;&lt;div&gt;newsitems&lt;/div&gt;&lt;div&gt;startdate&lt;/div&gt;&lt;div&gt;timecreated&lt;/div&gt;&lt;div&gt;timemodified&lt;/div&gt;&lt;div&gt;enablecompletion&amp;nbsp;&lt;/div&gt;&lt;div&gt;originalcourseid&lt;/div&gt;&lt;div&gt;showcompletionconditions&lt;/div&gt;&lt;/div&gt;" style="align=left;spacingLeft=4;fontSize=20;verticalAlign=top;resizable=0;rotatable=0;part=1;html=1;strokeWidth=1;" parent="7yvUDdmi210qswCJpNzK-16" vertex="1">
                    <mxGeometry y="50" width="260" height="370" as="geometry"/>
                </mxCell>
                <mxCell id="7yvUDdmi210qswCJpNzK-18" value="&lt;span style=&quot;color: rgb(0, 85, 170); font-family: monospace; text-align: left; background-color: rgb(229, 229, 229);&quot;&gt;&lt;font&gt;course_modules&lt;/font&gt;&lt;/span&gt;" style="swimlane;childLayout=stackLayout;horizontal=1;startSize=50;horizontalStack=0;rounded=1;fontSize=22;fontStyle=0;strokeWidth=2;resizeParent=0;resizeLast=1;shadow=0;dashed=0;align=center;arcSize=4;whiteSpace=wrap;html=1;" parent="1" vertex="1">
                    <mxGeometry x="720" y="680" width="280" height="400" as="geometry"/>
                </mxCell>
                <mxCell id="7yvUDdmi210qswCJpNzK-19" value="id&lt;div&gt;course&lt;/div&gt;&lt;div&gt;module&lt;/div&gt;&lt;div&gt;instance&lt;/div&gt;&lt;div&gt;section&lt;/div&gt;&lt;div&gt;added&lt;/div&gt;&lt;div&gt;visible&lt;/div&gt;&lt;div&gt;visibleold&lt;/div&gt;&lt;div&gt;completion&lt;/div&gt;&lt;div&gt;completiongradeitemnumber&lt;/div&gt;&lt;div&gt;completionview&lt;/div&gt;&lt;div&gt;completionpassgrade&lt;/div&gt;&lt;div&gt;showdescription&lt;/div&gt;&lt;div&gt;availability&lt;/div&gt;" style="align=left;spacingLeft=4;fontSize=20;verticalAlign=top;resizable=0;rotatable=0;part=1;html=1;strokeWidth=1;" parent="7yvUDdmi210qswCJpNzK-18" vertex="1">
                    <mxGeometry y="50" width="280" height="350" as="geometry"/>
                </mxCell>
                <mxCell id="7yvUDdmi210qswCJpNzK-20" value="&lt;span style=&quot;color: rgb(0, 85, 170); font-family: monospace; text-align: left; background-color: rgb(229, 229, 229);&quot;&gt;&lt;font&gt;course_sections&lt;/font&gt;&lt;/span&gt;" style="swimlane;childLayout=stackLayout;horizontal=1;startSize=50;horizontalStack=0;rounded=1;fontSize=22;fontStyle=0;strokeWidth=2;resizeParent=0;resizeLast=1;shadow=0;dashed=0;align=center;arcSize=4;whiteSpace=wrap;html=1;" parent="1" vertex="1">
                    <mxGeometry x="370" y="800" width="270" height="300" as="geometry"/>
                </mxCell>
                <mxCell id="7yvUDdmi210qswCJpNzK-21" value="id&lt;div&gt;course&lt;/div&gt;&lt;div&gt;section&lt;/div&gt;&lt;div&gt;name&lt;/div&gt;&lt;div&gt;summary&lt;/div&gt;&lt;div&gt;summaryformat&lt;/div&gt;&lt;div&gt;sequence&lt;/div&gt;&lt;div&gt;visible&lt;/div&gt;&lt;div&gt;availability&lt;/div&gt;&lt;div&gt;timemodified&lt;/div&gt;" style="align=left;spacingLeft=4;fontSize=20;verticalAlign=top;resizable=0;rotatable=0;part=1;html=1;strokeWidth=1;" parent="7yvUDdmi210qswCJpNzK-20" vertex="1">
                    <mxGeometry y="50" width="270" height="250" as="geometry"/>
                </mxCell>
                <mxCell id="7yvUDdmi210qswCJpNzK-22" value="&lt;span style=&quot;color: rgb(0, 85, 170); font-family: monospace; text-align: left; background-color: rgb(229, 229, 229);&quot;&gt;&lt;font&gt;modules&lt;/font&gt;&lt;/span&gt;" style="swimlane;childLayout=stackLayout;horizontal=1;startSize=50;horizontalStack=0;rounded=1;fontSize=22;fontStyle=0;strokeWidth=2;resizeParent=0;resizeLast=1;shadow=0;dashed=0;align=center;arcSize=4;whiteSpace=wrap;html=1;" parent="1" vertex="1">
                    <mxGeometry x="1080" y="720" width="200" height="110" as="geometry"/>
                </mxCell>
                <mxCell id="7yvUDdmi210qswCJpNzK-23" value="id&lt;div&gt;name&lt;/div&gt;" style="align=left;spacingLeft=4;fontSize=20;verticalAlign=top;resizable=0;rotatable=0;part=1;html=1;strokeWidth=1;" parent="7yvUDdmi210qswCJpNzK-22" vertex="1">
                    <mxGeometry y="50" width="200" height="60" as="geometry"/>
                </mxCell>
                <mxCell id="7yvUDdmi210qswCJpNzK-25" value="&lt;ol&gt;&lt;li&gt;&lt;span style=&quot;background-color: transparent; color: light-dark(rgb(0, 0, 0), rgb(255, 255, 255));&quot;&gt;page&lt;/span&gt;&lt;/li&gt;&lt;li&gt;feedback&lt;/li&gt;&lt;li&gt;choice&lt;/li&gt;&lt;li&gt;quiz&lt;/li&gt;&lt;li&gt;url&lt;/li&gt;&lt;li&gt;&lt;span style=&quot;background-color: transparent; color: light-dark(rgb(0, 0, 0), rgb(255, 255, 255));&quot;&gt;forum&lt;/span&gt;&lt;/li&gt;&lt;li&gt;reengagement&lt;/li&gt;&lt;/ol&gt;" style="text;html=1;align=left;verticalAlign=middle;whiteSpace=wrap;rounded=0;fontSize=20;fillColor=#dae8fc;strokeColor=#6c8ebf;glass=0;shadow=0;gradientColor=none;" parent="1" vertex="1">
                    <mxGeometry x="1080" y="830" width="200" height="230" as="geometry"/>
                </mxCell>
                <mxCell id="7yvUDdmi210qswCJpNzK-26" value="&lt;span style=&quot;color: rgb(0, 85, 170); font-family: monospace; text-align: left; background-color: rgb(229, 229, 229);&quot;&gt;&lt;font&gt;reengagement&lt;/font&gt;&lt;/span&gt;" style="swimlane;childLayout=stackLayout;horizontal=1;startSize=50;horizontalStack=0;rounded=1;fontSize=22;fontStyle=0;strokeWidth=2;resizeParent=0;resizeLast=1;shadow=0;dashed=0;align=center;arcSize=4;whiteSpace=wrap;html=1;" parent="1" vertex="1">
                    <mxGeometry x="1520" y="2100" width="240" height="350" as="geometry"/>
                </mxCell>
                <mxCell id="7yvUDdmi210qswCJpNzK-27" value="id&lt;div&gt;course&lt;/div&gt;&lt;div&gt;name&lt;/div&gt;&lt;div&gt;timecreated&lt;/div&gt;&lt;div&gt;emailuser&lt;/div&gt;&lt;div&gt;emailcontent&lt;/div&gt;&lt;div&gt;emailcontentformat&lt;/div&gt;&lt;div&gt;emailsubject&lt;/div&gt;&lt;div&gt;emailcontentthirdparty&lt;/div&gt;&lt;div&gt;duration&lt;/div&gt;&lt;div&gt;suppresstarget&lt;/div&gt;&lt;div&gt;emaildelay&lt;/div&gt;" style="align=left;spacingLeft=4;fontSize=20;verticalAlign=top;resizable=0;rotatable=0;part=1;html=1;strokeWidth=1;" parent="7yvUDdmi210qswCJpNzK-26" vertex="1">
                    <mxGeometry y="50" width="240" height="300" as="geometry"/>
                </mxCell>
                <mxCell id="13C-WLvi4TpFE8Ketc-c-3" value="&lt;span style=&quot;color: rgb(0, 85, 170); font-family: monospace; text-align: left; background-color: rgb(229, 229, 229);&quot;&gt;&lt;font&gt;forum&lt;/font&gt;&lt;/span&gt;" style="swimlane;childLayout=stackLayout;horizontal=1;startSize=50;horizontalStack=0;rounded=1;fontSize=22;fontStyle=0;strokeWidth=2;resizeParent=0;resizeLast=1;shadow=0;dashed=0;align=center;arcSize=4;whiteSpace=wrap;html=1;" parent="1" vertex="1">
                    <mxGeometry x="1520" y="1790" width="240" height="300" as="geometry"/>
                </mxCell>
                <mxCell id="13C-WLvi4TpFE8Ketc-c-4" value="id&lt;div&gt;course&lt;/div&gt;&lt;div&gt;name&lt;/div&gt;&lt;div&gt;intro&lt;/div&gt;&lt;div&gt;introformat&lt;/div&gt;&lt;div&gt;scale&lt;/div&gt;&lt;div&gt;maxbytes&lt;/div&gt;&lt;div&gt;forcesubscribe&lt;/div&gt;&lt;div&gt;timemodified&lt;/div&gt;&lt;div&gt;displaywordcount&lt;/div&gt;" style="align=left;spacingLeft=4;fontSize=20;verticalAlign=top;resizable=0;rotatable=0;part=1;html=1;strokeWidth=1;" parent="13C-WLvi4TpFE8Ketc-c-3" vertex="1">
                    <mxGeometry y="50" width="240" height="250" as="geometry"/>
                </mxCell>
                <mxCell id="13C-WLvi4TpFE8Ketc-c-7" value="" style="edgeStyle=entityRelationEdgeStyle;fontSize=12;html=1;endArrow=ERmandOne;startArrow=ERmandOne;rounded=0;exitX=0.995;exitY=0.896;exitDx=0;exitDy=0;exitPerimeter=0;entryX=0.002;entryY=0.068;entryDx=0;entryDy=0;entryPerimeter=0;" parent="1" source="7yvUDdmi210qswCJpNzK-25" target="7yvUDdmi210qswCJpNzK-27" edge="1">
                    <mxGeometry width="100" height="100" relative="1" as="geometry">
                        <mxPoint x="229.99999999999972" y="2070" as="sourcePoint"/>
                        <mxPoint x="380.12000000000006" y="2789.9900000000002" as="targetPoint"/>
                    </mxGeometry>
                </mxCell>
                <mxCell id="13C-WLvi4TpFE8Ketc-c-8" value="" style="edgeStyle=entityRelationEdgeStyle;fontSize=12;html=1;endArrow=ERmandOne;startArrow=ERmandOne;rounded=0;exitX=1;exitY=0.75;exitDx=0;exitDy=0;entryX=0.002;entryY=0.07;entryDx=0;entryDy=0;entryPerimeter=0;" parent="1" source="7yvUDdmi210qswCJpNzK-25" target="13C-WLvi4TpFE8Ketc-c-4" edge="1">
                    <mxGeometry width="100" height="100" relative="1" as="geometry">
                        <mxPoint x="310.0000000000001" y="1980.0000000000002" as="sourcePoint"/>
                        <mxPoint x="554.0000000000001" y="2390.05" as="targetPoint"/>
                        <Array as="points">
                            <mxPoint x="1633.6" y="1212.2"/>
                            <mxPoint x="1653.6" y="1222.2"/>
                        </Array>
                    </mxGeometry>
                </mxCell>
                <mxCell id="13C-WLvi4TpFE8Ketc-c-9" value="" style="edgeStyle=entityRelationEdgeStyle;fontSize=12;html=1;endArrow=ERmandOne;startArrow=ERmandOne;rounded=0;exitX=0.984;exitY=0.167;exitDx=0;exitDy=0;exitPerimeter=0;entryX=0;entryY=0.25;entryDx=0;entryDy=0;" parent="1" source="7yvUDdmi210qswCJpNzK-19" target="7yvUDdmi210qswCJpNzK-23" edge="1">
                    <mxGeometry width="100" height="100" relative="1" as="geometry">
                        <mxPoint x="1510" y="1040" as="sourcePoint"/>
                        <mxPoint x="1610" y="940" as="targetPoint"/>
                    </mxGeometry>
                </mxCell>
                <mxCell id="13C-WLvi4TpFE8Ketc-c-10" value="&lt;span style=&quot;color: rgb(0, 85, 170); font-family: monospace; text-align: left; background-color: rgb(229, 229, 229);&quot;&gt;&lt;font&gt;url&lt;/font&gt;&lt;/span&gt;" style="swimlane;childLayout=stackLayout;horizontal=1;startSize=50;horizontalStack=0;rounded=1;fontSize=22;fontStyle=0;strokeWidth=2;resizeParent=0;resizeLast=1;shadow=0;dashed=0;align=center;arcSize=4;whiteSpace=wrap;html=1;" parent="1" vertex="1">
                    <mxGeometry x="1520" y="1500" width="240" height="280" as="geometry"/>
                </mxCell>
                <mxCell id="13C-WLvi4TpFE8Ketc-c-11" value="id&lt;div&gt;course&lt;/div&gt;&lt;div&gt;name&lt;/div&gt;&lt;div&gt;introformat&lt;/div&gt;&lt;div&gt;externalurl&lt;/div&gt;&lt;div&gt;display&lt;/div&gt;&lt;div&gt;displayoptions&lt;/div&gt;&lt;div&gt;parameters&lt;/div&gt;&lt;div&gt;timemodified&lt;/div&gt;" style="align=left;spacingLeft=4;fontSize=20;verticalAlign=top;resizable=0;rotatable=0;part=1;html=1;strokeWidth=1;" parent="13C-WLvi4TpFE8Ketc-c-10" vertex="1">
                    <mxGeometry y="50" width="240" height="230" as="geometry"/>
                </mxCell>
                <mxCell id="13C-WLvi4TpFE8Ketc-c-12" value="" style="edgeStyle=entityRelationEdgeStyle;fontSize=12;html=1;endArrow=ERmandOne;startArrow=ERmandOne;rounded=0;exitX=1.002;exitY=0.617;exitDx=0;exitDy=0;exitPerimeter=0;entryX=0;entryY=0.25;entryDx=0;entryDy=0;" parent="1" source="7yvUDdmi210qswCJpNzK-25" target="13C-WLvi4TpFE8Ketc-c-10" edge="1">
                    <mxGeometry width="100" height="100" relative="1" as="geometry">
                        <mxPoint x="1080" y="1480" as="sourcePoint"/>
                        <mxPoint x="1180" y="1380" as="targetPoint"/>
                        <Array as="points">
                            <mxPoint x="1170" y="1450"/>
                            <mxPoint x="1220" y="1480"/>
                            <mxPoint x="1170" y="1410"/>
                            <mxPoint x="1530" y="850"/>
                            <mxPoint x="1320" y="1220"/>
                            <mxPoint x="1290" y="1270"/>
                        </Array>
                    </mxGeometry>
                </mxCell>
                <mxCell id="13C-WLvi4TpFE8Ketc-c-13" value="&lt;span style=&quot;color: rgb(0, 85, 170); font-family: monospace; text-align: left; background-color: rgb(229, 229, 229);&quot;&gt;&lt;font&gt;quiz&lt;/font&gt;&lt;/span&gt;" style="swimlane;childLayout=stackLayout;horizontal=1;startSize=50;horizontalStack=0;rounded=1;fontSize=22;fontStyle=0;strokeWidth=2;resizeParent=0;resizeLast=1;shadow=0;dashed=0;align=center;arcSize=4;whiteSpace=wrap;html=1;" parent="1" vertex="1">
                    <mxGeometry x="1520" y="900" width="240" height="590" as="geometry"/>
                </mxCell>
                <mxCell id="13C-WLvi4TpFE8Ketc-c-14" value="id&lt;div&gt;course&lt;/div&gt;&lt;div&gt;name&lt;/div&gt;&lt;div&gt;introformat&lt;/div&gt;&lt;div&gt;timelimit&lt;/div&gt;&lt;div&gt;overduehandling&lt;/div&gt;&lt;div&gt;preferredbehaviour&lt;/div&gt;&lt;div&gt;attempts&lt;/div&gt;&lt;div&gt;reviewattempt&lt;/div&gt;&lt;div&gt;reviewcorrectness&lt;/div&gt;&lt;div&gt;reviewmarks&lt;/div&gt;&lt;div&gt;reviewspecificfeedback&lt;/div&gt;&lt;div&gt;raviewgeneralfeedback&lt;/div&gt;&lt;div&gt;reviewoverallfeedback&lt;/div&gt;&lt;div&gt;shuffleanswers&lt;/div&gt;&lt;div&gt;sumgrades&lt;/div&gt;&lt;div&gt;grade&lt;/div&gt;&lt;div&gt;timecreated&lt;/div&gt;&lt;div&gt;timemodified&lt;/div&gt;&lt;div&gt;browsersecurity&lt;/div&gt;&lt;div&gt;showuserpicture&lt;/div&gt;&lt;div&gt;completionpass&lt;/div&gt;" style="align=left;spacingLeft=4;fontSize=20;verticalAlign=top;resizable=0;rotatable=0;part=1;html=1;strokeWidth=1;" parent="13C-WLvi4TpFE8Ketc-c-13" vertex="1">
                    <mxGeometry y="50" width="240" height="540" as="geometry"/>
                </mxCell>
                <mxCell id="13C-WLvi4TpFE8Ketc-c-15" value="" style="edgeStyle=entityRelationEdgeStyle;fontSize=12;html=1;endArrow=ERmandOne;startArrow=ERmandOne;rounded=0;exitX=1;exitY=0.5;exitDx=0;exitDy=0;entryX=0;entryY=0.037;entryDx=0;entryDy=0;entryPerimeter=0;" parent="1" source="7yvUDdmi210qswCJpNzK-25" target="13C-WLvi4TpFE8Ketc-c-14" edge="1">
                    <mxGeometry width="100" height="100" relative="1" as="geometry">
                        <mxPoint x="350" y="1810" as="sourcePoint"/>
                        <mxPoint x="450" y="1710" as="targetPoint"/>
                    </mxGeometry>
                </mxCell>
                <mxCell id="13C-WLvi4TpFE8Ketc-c-16" value="&lt;span style=&quot;color: rgb(0, 85, 170); font-family: monospace; text-align: left; background-color: rgb(229, 229, 229);&quot;&gt;&lt;font&gt;choice&lt;/font&gt;&lt;/span&gt;" style="swimlane;childLayout=stackLayout;horizontal=1;startSize=50;horizontalStack=0;rounded=1;fontSize=22;fontStyle=0;strokeWidth=2;resizeParent=0;resizeLast=1;shadow=0;dashed=0;align=center;arcSize=4;whiteSpace=wrap;html=1;" parent="1" vertex="1">
                    <mxGeometry x="1520" y="630" width="240" height="260" as="geometry"/>
                </mxCell>
                <mxCell id="13C-WLvi4TpFE8Ketc-c-17" value="id&lt;div&gt;course&lt;/div&gt;&lt;div&gt;name&lt;/div&gt;&lt;div&gt;intro&lt;/div&gt;&lt;div&gt;introformat&lt;/div&gt;&lt;div&gt;includeinactive&lt;/div&gt;&lt;div&gt;timemodified&lt;/div&gt;&lt;div&gt;completionsubmit&lt;/div&gt;" style="align=left;spacingLeft=4;fontSize=20;verticalAlign=top;resizable=0;rotatable=0;part=1;html=1;strokeWidth=1;" parent="13C-WLvi4TpFE8Ketc-c-16" vertex="1">
                    <mxGeometry y="50" width="240" height="210" as="geometry"/>
                </mxCell>
                <mxCell id="13C-WLvi4TpFE8Ketc-c-18" value="" style="edgeStyle=entityRelationEdgeStyle;fontSize=12;html=1;endArrow=ERmandOne;startArrow=ERmandOne;rounded=0;exitX=0.988;exitY=0.377;exitDx=0;exitDy=0;exitPerimeter=0;entryX=0;entryY=0.25;entryDx=0;entryDy=0;" parent="1" source="7yvUDdmi210qswCJpNzK-25" target="13C-WLvi4TpFE8Ketc-c-16" edge="1">
                    <mxGeometry width="100" height="100" relative="1" as="geometry">
                        <mxPoint x="370.00000000000017" y="1879.0900000000004" as="sourcePoint"/>
                        <mxPoint x="1201.4000000000003" y="1809.9999999999998" as="targetPoint"/>
                        <Array as="points">
                            <mxPoint x="940.2" y="1760.05"/>
                        </Array>
                    </mxGeometry>
                </mxCell>
                <mxCell id="13C-WLvi4TpFE8Ketc-c-19" value="&lt;span style=&quot;color: rgb(0, 85, 170); font-family: monospace; text-align: left; background-color: rgb(229, 229, 229);&quot;&gt;&lt;font&gt;feedback&lt;/font&gt;&lt;/span&gt;" style="swimlane;childLayout=stackLayout;horizontal=1;startSize=50;horizontalStack=0;rounded=1;fontSize=22;fontStyle=0;strokeWidth=2;resizeParent=0;resizeLast=1;shadow=0;dashed=0;align=center;arcSize=4;whiteSpace=wrap;html=1;" parent="1" vertex="1">
                    <mxGeometry x="1520" y="320" width="240" height="300" as="geometry"/>
                </mxCell>
                <mxCell id="13C-WLvi4TpFE8Ketc-c-20" value="id&lt;div&gt;course&lt;/div&gt;&lt;div&gt;name&lt;/div&gt;&lt;div&gt;introformat&lt;/div&gt;&lt;div&gt;anonymous&lt;/div&gt;&lt;div&gt;multiple_submit&lt;/div&gt;&lt;div&gt;autonumbering&lt;/div&gt;&lt;div&gt;site_after_submit&lt;/div&gt;&lt;div&gt;page_after_submitformat&lt;/div&gt;&lt;div&gt;timemodified&lt;/div&gt;" style="align=left;spacingLeft=4;fontSize=20;verticalAlign=top;resizable=0;rotatable=0;part=1;html=1;strokeWidth=1;" parent="13C-WLvi4TpFE8Ketc-c-19" vertex="1">
                    <mxGeometry y="50" width="240" height="250" as="geometry"/>
                </mxCell>
                <mxCell id="13C-WLvi4TpFE8Ketc-c-21" value="" style="edgeStyle=entityRelationEdgeStyle;fontSize=12;html=1;endArrow=ERmandOne;startArrow=ERmandOne;rounded=0;exitX=1;exitY=0.25;exitDx=0;exitDy=0;entryX=-0.004;entryY=0.064;entryDx=0;entryDy=0;entryPerimeter=0;" parent="1" source="7yvUDdmi210qswCJpNzK-25" target="13C-WLvi4TpFE8Ketc-c-20" edge="1">
                    <mxGeometry width="100" height="100" relative="1" as="geometry">
                        <mxPoint x="439.99999999999983" y="1769.9999999999995" as="sourcePoint"/>
                        <mxPoint x="1594.4399999999998" y="1580.85" as="targetPoint"/>
                        <Array as="points">
                            <mxPoint x="1051.8" y="1481.1"/>
                        </Array>
                    </mxGeometry>
                </mxCell>
                <mxCell id="13C-WLvi4TpFE8Ketc-c-22" value="&lt;span style=&quot;color: rgb(0, 85, 170); font-family: monospace; text-align: left; background-color: rgb(229, 229, 229);&quot;&gt;&lt;font&gt;page&lt;/font&gt;&lt;/span&gt;" style="swimlane;childLayout=stackLayout;horizontal=1;startSize=50;horizontalStack=0;rounded=1;fontSize=22;fontStyle=0;strokeWidth=2;resizeParent=0;resizeLast=1;shadow=0;dashed=0;align=center;arcSize=4;whiteSpace=wrap;html=1;" parent="1" vertex="1">
                    <mxGeometry x="1520" y="30" width="240" height="280" as="geometry"/>
                </mxCell>
                <mxCell id="13C-WLvi4TpFE8Ketc-c-23" value="id&lt;div&gt;course&lt;/div&gt;&lt;div&gt;name&lt;/div&gt;&lt;div&gt;introformat&lt;/div&gt;&lt;div&gt;content&lt;/div&gt;&lt;div&gt;contentformat&lt;/div&gt;&lt;div&gt;display&lt;/div&gt;&lt;div&gt;displayoptions&lt;/div&gt;&lt;div&gt;timemodified&lt;/div&gt;" style="align=left;spacingLeft=4;fontSize=20;verticalAlign=top;resizable=0;rotatable=0;part=1;html=1;strokeWidth=1;" parent="13C-WLvi4TpFE8Ketc-c-22" vertex="1">
                    <mxGeometry y="50" width="240" height="230" as="geometry"/>
                </mxCell>
                <mxCell id="13C-WLvi4TpFE8Ketc-c-24" value="" style="edgeStyle=entityRelationEdgeStyle;fontSize=12;html=1;endArrow=ERmandOne;startArrow=ERmandOne;rounded=0;exitX=0.995;exitY=0.129;exitDx=0;exitDy=0;exitPerimeter=0;entryX=0;entryY=0.25;entryDx=0;entryDy=0;" parent="1" source="7yvUDdmi210qswCJpNzK-25" target="13C-WLvi4TpFE8Ketc-c-22" edge="1">
                    <mxGeometry width="100" height="100" relative="1" as="geometry">
                        <mxPoint x="310" y="1618" as="sourcePoint"/>
                        <mxPoint x="660" y="1440" as="targetPoint"/>
                    </mxGeometry>
                </mxCell>
                <mxCell id="13C-WLvi4TpFE8Ketc-c-31" value="" style="edgeStyle=entityRelationEdgeStyle;fontSize=12;html=1;endArrow=ERmandOne;startArrow=ERmandOne;rounded=0;exitX=0.995;exitY=0.054;exitDx=0;exitDy=0;exitPerimeter=0;entryX=0.016;entryY=0.18;entryDx=0;entryDy=0;entryPerimeter=0;" parent="1" source="7yvUDdmi210qswCJpNzK-17" target="7yvUDdmi210qswCJpNzK-21" edge="1">
                    <mxGeometry width="100" height="100" relative="1" as="geometry">
                        <mxPoint x="450" y="890" as="sourcePoint"/>
                        <mxPoint x="550" y="790" as="targetPoint"/>
                    </mxGeometry>
                </mxCell>
                <mxCell id="13C-WLvi4TpFE8Ketc-c-32" value="" style="edgeStyle=entityRelationEdgeStyle;fontSize=12;html=1;endArrow=ERmandOne;startArrow=ERmandOne;rounded=0;exitX=1.005;exitY=0.067;exitDx=0;exitDy=0;exitPerimeter=0;entryX=0.005;entryY=0.329;entryDx=0;entryDy=0;entryPerimeter=0;" parent="1" source="7yvUDdmi210qswCJpNzK-21" target="7yvUDdmi210qswCJpNzK-19" edge="1">
                    <mxGeometry width="100" height="100" relative="1" as="geometry">
                        <mxPoint x="710" y="1520" as="sourcePoint"/>
                        <mxPoint x="810" y="1420" as="targetPoint"/>
                    </mxGeometry>
                </mxCell>
                <mxCell id="13C-WLvi4TpFE8Ketc-c-33" value="" style="edgeStyle=entityRelationEdgeStyle;fontSize=12;html=1;endArrow=ERmandOne;startArrow=ERmandOne;rounded=0;exitX=0.99;exitY=0.059;exitDx=0;exitDy=0;exitPerimeter=0;entryX=0.016;entryY=0.119;entryDx=0;entryDy=0;entryPerimeter=0;" parent="1" source="7yvUDdmi210qswCJpNzK-17" target="7yvUDdmi210qswCJpNzK-19" edge="1">
                    <mxGeometry width="100" height="100" relative="1" as="geometry">
                        <mxPoint x="660" y="1540" as="sourcePoint"/>
                        <mxPoint x="760" y="1440" as="targetPoint"/>
                    </mxGeometry>
                </mxCell>
                <mxCell id="3" value="" style="rounded=1;whiteSpace=wrap;html=1;" vertex="1" parent="1">
                    <mxGeometry x="90" y="80" width="880" height="390" as="geometry"/>
                </mxCell>
                <mxCell id="2" value="&lt;font style=&quot;font-size: 48px;&quot;&gt;IMPORTANT COLUMNS THAT SHOULD RECEIVE RELEVANT VALUES&lt;/font&gt;" style="text;html=1;align=center;verticalAlign=middle;whiteSpace=wrap;rounded=0;" vertex="1" parent="1">
                    <mxGeometry x="120" y="120" width="820" height="310" as="geometry"/>
                </mxCell>
                <mxCell id="4" value="&lt;span style=&quot;color: rgb(0, 85, 170); font-family: monospace; text-align: left; background-color: rgb(229, 229, 229);&quot;&gt;&lt;font&gt;choice_options&lt;/font&gt;&lt;/span&gt;" style="swimlane;childLayout=stackLayout;horizontal=1;startSize=50;horizontalStack=0;rounded=1;fontSize=22;fontStyle=0;strokeWidth=2;resizeParent=0;resizeLast=1;shadow=0;dashed=0;align=center;arcSize=4;whiteSpace=wrap;html=1;" vertex="1" parent="1">
                    <mxGeometry x="1840" y="710" width="240" height="160" as="geometry"/>
                </mxCell>
                <mxCell id="5" value="id&lt;div&gt;choiceid&lt;/div&gt;&lt;div&gt;text&lt;/div&gt;&lt;div&gt;timemodified&lt;/div&gt;" style="align=left;spacingLeft=4;fontSize=20;verticalAlign=top;resizable=0;rotatable=0;part=1;html=1;strokeWidth=1;" vertex="1" parent="4">
                    <mxGeometry y="50" width="240" height="110" as="geometry"/>
                </mxCell>
                <mxCell id="6" value="" style="edgeStyle=entityRelationEdgeStyle;fontSize=12;html=1;endArrow=ERoneToMany;exitX=0.998;exitY=0.066;exitDx=0;exitDy=0;exitPerimeter=0;entryX=0.018;entryY=0.402;entryDx=0;entryDy=0;entryPerimeter=0;" edge="1" parent="1" source="13C-WLvi4TpFE8Ketc-c-17" target="5">
                    <mxGeometry width="100" height="100" relative="1" as="geometry">
                        <mxPoint x="2140" y="960" as="sourcePoint"/>
                        <mxPoint x="2240" y="860" as="targetPoint"/>
                    </mxGeometry>
                </mxCell>
                <mxCell id="7" value="&lt;span style=&quot;color: rgb(0, 85, 170); font-family: monospace; text-align: left; background-color: rgb(229, 229, 229);&quot;&gt;&lt;font&gt;feedback_item&lt;/font&gt;&lt;/span&gt;" style="swimlane;childLayout=stackLayout;horizontal=1;startSize=50;horizontalStack=0;rounded=1;fontSize=22;fontStyle=0;strokeWidth=2;resizeParent=0;resizeLast=1;shadow=0;dashed=0;align=center;arcSize=4;whiteSpace=wrap;html=1;" vertex="1" parent="1">
                    <mxGeometry x="2170" y="300" width="240" height="300" as="geometry"/>
                </mxCell>
                <mxCell id="8" value="&lt;div&gt;&lt;font color=&quot;#000000&quot;&gt;id&lt;/font&gt;&lt;/div&gt;&lt;div&gt;&lt;font color=&quot;#000000&quot;&gt;feedback&lt;/font&gt;&lt;/div&gt;&lt;div&gt;&lt;font color=&quot;#000000&quot;&gt;template&lt;/font&gt;&lt;/div&gt;&lt;div&gt;&lt;font color=&quot;#000000&quot;&gt;name&lt;/font&gt;&lt;/div&gt;&lt;div&gt;&lt;font color=&quot;#000000&quot;&gt;presentation&lt;/font&gt;&lt;/div&gt;&lt;div&gt;&lt;font color=&quot;#000000&quot;&gt;typ&lt;/font&gt;&lt;/div&gt;&lt;div&gt;&lt;font color=&quot;#000000&quot;&gt;hasvalue&lt;/font&gt;&lt;/div&gt;&lt;div&gt;&lt;font color=&quot;#000000&quot;&gt;position&lt;/font&gt;&lt;/div&gt;&lt;div&gt;&lt;font color=&quot;#000000&quot;&gt;required&lt;/font&gt;&lt;/div&gt;&lt;div&gt;&lt;font color=&quot;#000000&quot;&gt;options&lt;/font&gt;&lt;/div&gt;" style="align=left;spacingLeft=4;fontSize=20;verticalAlign=top;resizable=0;rotatable=0;part=1;html=1;strokeWidth=1;" vertex="1" parent="7">
                    <mxGeometry y="50" width="240" height="250" as="geometry"/>
                </mxCell>
                <mxCell id="9" value="&lt;span style=&quot;color: rgb(0, 85, 170); font-family: monospace; text-align: left; background-color: rgb(229, 229, 229);&quot;&gt;&lt;font&gt;feedback_template&lt;/font&gt;&lt;/span&gt;" style="swimlane;childLayout=stackLayout;horizontal=1;startSize=50;horizontalStack=0;rounded=1;fontSize=22;fontStyle=0;strokeWidth=2;resizeParent=0;resizeLast=1;shadow=0;dashed=0;align=center;arcSize=4;whiteSpace=wrap;html=1;" vertex="1" parent="1">
                    <mxGeometry x="1820" y="440" width="240" height="160" as="geometry"/>
                </mxCell>
                <mxCell id="10" value="id&lt;div&gt;course&lt;/div&gt;&lt;div&gt;ispublic&lt;/div&gt;&lt;div&gt;name&lt;/div&gt;" style="align=left;spacingLeft=4;fontSize=20;verticalAlign=top;resizable=0;rotatable=0;part=1;html=1;strokeWidth=1;" vertex="1" parent="9">
                    <mxGeometry y="50" width="240" height="110" as="geometry"/>
                </mxCell>
                <mxCell id="11" value="" style="edgeStyle=entityRelationEdgeStyle;fontSize=12;html=1;endArrow=ERoneToMany;exitX=0.993;exitY=0.057;exitDx=0;exitDy=0;exitPerimeter=0;entryX=0.001;entryY=0.179;entryDx=0;entryDy=0;entryPerimeter=0;" edge="1" parent="1" source="13C-WLvi4TpFE8Ketc-c-20" target="8">
                    <mxGeometry width="100" height="100" relative="1" as="geometry">
                        <mxPoint x="2130" y="600" as="sourcePoint"/>
                        <mxPoint x="2214" y="710" as="targetPoint"/>
                    </mxGeometry>
                </mxCell>
                <mxCell id="13" value="" style="edgeStyle=entityRelationEdgeStyle;fontSize=12;html=1;endArrow=ERoneToMany;exitX=0.995;exitY=0.138;exitDx=0;exitDy=0;exitPerimeter=0;entryX=0;entryY=0.25;entryDx=0;entryDy=0;" edge="1" parent="1" source="10" target="8">
                    <mxGeometry width="100" height="100" relative="1" as="geometry">
                        <mxPoint x="2150" y="610" as="sourcePoint"/>
                        <mxPoint x="2140" y="770" as="targetPoint"/>
                    </mxGeometry>
                </mxCell>
            </root>
        </mxGraphModel>
    </diagram>
</mxfile>